<svg width="45" height="45" viewBox="0 0 45 45" fill="none" xmlns="http://www.w3.org/2000/svg">
<g clip-path="url(#clip0_11_160)">
<path d="M34.0992 32.3628C34.712 33.1141 34.5999 34.2199 33.8486 34.8327C28.6236 39.0949 23.517 41.6138 23.3021 41.7189C23.0588 41.838 22.7946 41.8976 22.5305 41.8976C22.2688 41.8976 22.0071 41.8392 21.7654 41.7222C21.5495 41.6176 16.417 39.1125 11.1774 34.8309C10.4267 34.2174 10.3154 33.1115 10.9288 32.3608C11.5423 31.61 12.6482 31.4989 13.3989 32.1122C17.1614 35.1868 20.9452 37.3253 22.5268 38.1659C24.1037 37.3209 27.8741 35.1755 31.6293 32.1122C32.3806 31.4992 33.4864 31.6116 34.0992 32.3628V32.3628ZM3.64183 25.1335C3.90839 25.1335 4.17908 25.0726 4.43309 24.944C5.29808 24.5062 5.64451 23.4501 5.20671 22.5851C4.12185 20.4413 3.57178 18.3013 3.57178 16.2243C3.57178 13.5511 5.11709 6.61334 12.1734 6.61334C14.6012 6.61334 16.819 7.37573 18.7653 8.87917C20.2671 10.0392 21.0416 11.2299 21.0446 11.2343C21.3641 11.7537 21.9185 12.0737 22.5282 12.0737C23.1378 12.0737 23.6923 11.761 24.0118 11.2417C24.0194 11.2299 24.7939 10.0392 26.2957 8.87917C28.2419 7.37564 30.4598 6.61334 32.8876 6.61334C39.9439 6.61334 41.4892 13.5511 41.4892 16.2243C41.4892 17.1939 42.2751 17.9798 43.2447 17.9798C44.2142 17.9798 45.0001 17.1939 45.0001 16.2243C45.0001 13.3702 44.0558 10.2951 42.4742 7.99847C40.936 5.76494 38.0242 3.10248 32.8876 3.10248C27.756 3.10248 24.3262 5.69323 22.5305 7.54425C20.7349 5.69323 17.3051 3.10248 12.1735 3.10248C7.03692 3.10248 4.1251 5.76494 2.5869 7.99847C1.00525 10.2951 0.0610052 13.3702 0.0610052 16.2243C0.0610052 18.8572 0.738339 21.5307 2.07422 24.1704C2.38336 24.7814 3.00092 25.1336 3.64183 25.1335V25.1335ZM44.163 31.1368L39.5851 28.0599V19.2488C39.5851 18.2792 38.7992 17.4933 37.8297 17.4933H30.8079C29.8384 17.4933 29.0525 18.2792 29.0525 19.2488V20.6686L23.4921 16.6845C22.887 16.2508 22.074 16.2462 21.4639 16.6728L0.749749 31.1551C-0.0448475 31.7106 -0.238559 32.805 0.316947 33.5996C0.872454 34.3942 1.96688 34.5879 2.76148 34.0324L22.4573 20.2621L29.7856 25.5129C30.3204 25.8961 31.0248 25.948 31.6101 25.6473C32.1953 25.3466 32.5634 24.7439 32.5634 24.0859V21.0042H36.0742V28.9951C36.0742 29.5797 36.3652 30.126 36.8504 30.452L42.2045 34.0507C42.505 34.2526 42.8454 34.3494 43.1822 34.3494C43.7472 34.3494 44.3019 34.0771 44.6407 33.573C45.1815 32.7683 44.9677 31.6777 44.163 31.1368V31.1368ZM23.3474 31.1894C23.8322 31.1894 24.2252 30.7964 24.2252 30.3117V28.5563C24.2252 28.0715 23.8322 27.6785 23.3474 27.6785H21.592C21.1072 27.6785 20.7143 28.0715 20.7143 28.5563V30.3117C20.7143 30.7964 21.1072 31.1894 21.592 31.1894H23.3474Z" fill="#707680"/>
</g>
<defs>
<clipPath id="clip0_11_160">
<rect width="45" height="45" fill="white"/>
</clipPath>
</defs>
</svg>
