<svg width="45" height="45" viewBox="0 0 45 45" fill="none" xmlns="http://www.w3.org/2000/svg">
<path d="M17.3438 15C17.3438 14.2234 17.9734 13.5938 18.75 13.5938H26.25C27.0266 13.5938 27.6563 14.2234 27.6563 15C27.6563 15.7766 27.0266 16.4063 26.25 16.4063H18.75C17.9734 16.4063 17.3438 15.7766 17.3438 15Z" fill="#707680"/>
<path d="M13.5938 22.5C13.5938 21.7234 14.2234 21.0938 15 21.0938H30C30.7766 21.0938 31.4062 21.7234 31.4062 22.5C31.4062 23.2766 30.7766 23.9062 30 23.9062H15C14.2234 23.9062 13.5938 23.2766 13.5938 22.5Z" fill="#707680"/>
<path fill-rule="evenodd" clip-rule="evenodd" d="M18.6871 2.34375H26.313C28.8849 2.34375 30.9013 2.34373 32.5221 2.47614C34.1723 2.61098 35.5356 2.89009 36.7695 3.51883C38.7983 4.55246 40.4475 6.20179 41.4812 8.23041C42.1099 9.46442 42.3891 10.8277 42.5239 12.478C42.6563 14.0987 42.6563 16.1151 42.6563 18.687V20.9704V21.2458C42.6566 24.1494 42.657 25.9207 42.2207 27.4086C41.1876 30.9321 38.4321 33.6876 34.9086 34.7207C33.4208 35.157 31.6494 35.1566 28.7458 35.1562C28.6551 35.1562 28.5634 35.1562 28.4704 35.1562H27.4414L27.3283 35.1564C25.7023 35.1667 24.1185 35.6745 22.7893 36.6111L22.6971 36.6767L17.802 40.1732C14.9811 42.1881 11.2742 39.2783 12.5616 36.0594C12.7347 35.6269 12.4161 35.1562 11.9501 35.1562H10.8219C6.13952 35.1562 2.34375 31.3605 2.34375 26.6781V18.6871C2.34375 16.1151 2.34373 14.0987 2.47614 12.478C2.61098 10.8277 2.89009 9.46442 3.51883 8.23041C4.55246 6.20179 6.20179 4.55246 8.23041 3.51883C9.46442 2.89009 10.8277 2.61098 12.478 2.47614C14.0987 2.34373 16.1151 2.34375 18.6871 2.34375V2.34375ZM12.707 5.27931C11.2307 5.39992 10.2787 5.63173 9.50726 6.02479C8.00784 6.78877 6.78878 8.00784 6.02479 9.50726C5.63173 10.2787 5.39993 11.2307 5.27931 12.707C5.15734 14.1998 5.15625 16.1015 5.15625 18.75V26.6781C5.15625 29.8073 7.69283 32.3438 10.8219 32.3438H11.9501C14.4058 32.3438 16.085 34.824 15.173 37.104C14.9287 37.7147 15.632 38.2669 16.1673 37.8846L21.0624 34.3881L21.1691 34.3119C22.9674 33.0448 25.1104 32.358 27.3103 32.3439L27.4414 32.3438H28.4704C31.7364 32.3438 33.0681 32.3295 34.1171 32.0218C36.7215 31.2581 38.7581 29.2215 39.5218 26.6171C39.8295 25.5681 39.8438 24.2364 39.8438 20.9704V18.75C39.8438 16.1015 39.8426 14.1998 39.7208 12.707C39.6 11.2307 39.3683 10.2787 38.9753 9.50726C38.2112 8.00784 36.9921 6.78877 35.4928 6.02479C34.7213 5.63173 33.7693 5.39992 32.2929 5.27931C30.8003 5.15734 28.8984 5.15625 26.25 5.15625H18.75C16.1015 5.15625 14.1998 5.15734 12.707 5.27931V5.27931Z" fill="#707680"/>
</svg>
