<svg width="45" height="45" viewBox="0 0 45 45" fill="none" xmlns="http://www.w3.org/2000/svg">
<path d="M35.6906 2.8125H9.32344C7.59663 2.8125 5.94055 3.49847 4.71951 4.71951C3.49847 5.94055 2.8125 7.59663 2.8125 9.32344V35.6906C2.81622 37.415 3.50384 39.0675 4.72447 40.2855C5.94511 41.5035 7.59906 42.1875 9.32344 42.1875H35.6906C37.4126 42.1838 39.0629 41.4981 40.2805 40.2805C41.4981 39.0629 42.1838 37.4126 42.1875 35.6906V9.32344C42.1875 7.59906 41.5035 5.94511 40.2855 4.72447C39.0675 3.50384 37.415 2.81622 35.6906 2.8125V2.8125ZM39.375 35.6906C39.3713 36.6666 38.9819 37.6016 38.2918 38.2918C37.6016 38.9819 36.6666 39.3713 35.6906 39.375H9.32344C8.34498 39.375 7.4064 38.9873 6.71321 38.2967C6.02002 37.6062 5.62872 36.6691 5.625 35.6906V9.32344C5.625 8.34255 6.01466 7.40184 6.70825 6.70825C7.40184 6.01466 8.34255 5.625 9.32344 5.625H35.6906C36.6691 5.62872 37.6062 6.02002 38.2967 6.71321C38.9873 7.4064 39.375 8.34498 39.375 9.32344V35.6906Z" fill="#707680"/>
<path d="M36.5625 15.6656C36.402 15.5726 36.2247 15.5123 36.0408 15.4882C35.8569 15.464 35.67 15.4765 35.491 15.5248C35.3119 15.5732 35.1441 15.6565 34.9974 15.77C34.8507 15.8834 34.7278 16.0248 34.636 16.1859L30.3047 23.6813L27.661 21.5438C27.507 21.4191 27.3285 21.3283 27.137 21.2774C26.9456 21.2265 26.7455 21.2166 26.55 21.2484C26.3539 21.2825 26.1673 21.3577 26.0024 21.4692C25.8376 21.5807 25.6983 21.726 25.5938 21.8953L21.5016 28.4063L17.6063 24.9328C17.467 24.8091 17.3045 24.7144 17.1283 24.654C16.952 24.5937 16.7656 24.5689 16.5797 24.5813C16.3944 24.5929 16.2133 24.6412 16.0467 24.7233C15.8802 24.8053 15.7316 24.9196 15.6094 25.0594L7.6922 34.2281C7.57124 34.3694 7.47929 34.5331 7.4216 34.7099C7.36391 34.8867 7.34161 35.0732 7.35598 35.2586C7.37034 35.444 7.42109 35.6248 7.50532 35.7906C7.58955 35.9564 7.70561 36.104 7.84689 36.225C7.98816 36.346 8.15187 36.4379 8.32868 36.4956C8.50549 36.5533 8.69193 36.5756 8.87736 36.5612C9.25185 36.5322 9.59947 36.3556 9.84376 36.0703L16.875 27.9844L20.9531 31.6125C21.1062 31.7477 21.2869 31.8478 21.4827 31.9061C21.6784 31.9643 21.8845 31.9793 22.0865 31.9498C22.2886 31.9204 22.4819 31.8473 22.6528 31.7356C22.8238 31.6239 22.9684 31.4763 23.0766 31.3031L27.211 24.7078L29.8969 26.8734C30.055 26.9999 30.2385 27.0907 30.4349 27.1396C30.6313 27.1886 30.8359 27.1946 31.0349 27.1572C31.2338 27.1199 31.4223 27.04 31.5875 26.923C31.7528 26.8061 31.8908 26.6549 31.9922 26.4797L37.1531 17.5641C37.3265 17.234 37.3616 16.8486 37.2509 16.4926C37.1401 16.1366 36.8925 15.8391 36.5625 15.6656Z" fill="#707680"/>
</svg>
